<svg xmlns="http://www.w3.org/2000/svg" width="397.375" height="156.937" viewBox="0 0 397.375 156.937">
  <g id="Group_3469" data-name="Group 3469" transform="translate(-1050.194 -235.634)">
    <path id="Path_4359" data-name="Path 4359" d="M590.36,362.52c-9.286,0-17.454-2.014-24.167-6.042a40.556,40.556,0,0,1-15.887-17.118c-3.8-7.384-5.706-16-5.706-26.069V255h23.048v58.627c0,8.615,2.126,15.44,6.265,20.475s9.846,7.5,17.006,7.5,12.867-2.461,17.006-7.5,6.266-11.748,6.266-20.475V255h23.048v58.291q0,14.769-5.706,25.845a41.515,41.515,0,0,1-16,17.118C608.038,360.506,599.87,362.52,590.36,362.52Z" transform="translate(628.033 27.551)" fill="none" stroke="#ffffff" stroke-width="5"/>
    <path id="Path_4360" data-name="Path 4360" d="M639.5,359.342v-104.5h20.922l.112,18.125a35.068,35.068,0,0,1,11.971-14.545,28.726,28.726,0,0,1,16.671-4.923,33.131,33.131,0,0,1,5.818.448,17.588,17.588,0,0,1,5.035,1.454l-2.461,21.817-4.7-.559a34.77,34.77,0,0,0-4.811-.336c-7.944,0-14.321,2.573-18.8,7.944-4.587,5.37-6.713,12.755-6.713,22.153v52.921Z" transform="translate(639.31 27.373)" fill="none" stroke="#ffffff" stroke-width="5"/>
    <path id="Path_4361" data-name="Path 4361" d="M705.3,363.869V215.4h23.048v56.613a32.049,32.049,0,0,1,12.755-11.3,38.162,38.162,0,0,1,18.013-4.14,35.839,35.839,0,0,1,34.013,21.37c3.133,6.713,4.811,14.769,4.811,23.943v61.983H774.891v-59.41c0-8.5-1.9-15.1-5.706-19.915s-9.062-7.16-15.887-7.16a24.8,24.8,0,0,0-12.867,3.356,24,24,0,0,0-8.839,9.174,27.067,27.067,0,0,0-3.133,13.426v60.753l-23.16-.224Z" transform="translate(647.129 22.846)" fill="none" stroke="#ffffff" stroke-width="5"/>
    <path id="Path_4362" data-name="Path 4362" d="M539.773,289.367a52.845,52.845,0,0,0-10.293-17.342A48.559,48.559,0,0,0,514.04,260.5a46.428,46.428,0,0,0-19.244-4.14,41.68,41.68,0,0,0-19.691,4.811A39.269,39.269,0,0,0,460.448,274.6V215.3H437.4V363.657h21.929V348.329a36.468,36.468,0,0,0,14.321,13.65,41.8,41.8,0,0,0,19.8,4.811,46.379,46.379,0,0,0,19.692-4.14A49.349,49.349,0,0,0,529.032,350.9a56.571,56.571,0,0,0,10.629-17.789,64.68,64.68,0,0,0,3.8-22.041A62.269,62.269,0,0,0,539.773,289.367Zm-45.2,52.026a29.606,29.606,0,0,1-29.425-29.425c0-16.223,13.2-29.649,29.2-29.761a29.593,29.593,0,0,1,.224,59.186Z" transform="translate(615.294 22.834)" fill="none" stroke="#ffffff" stroke-width="5"/>
  </g>
</svg>
