<svg xmlns="http://www.w3.org/2000/svg" width="251.156" height="58.82" viewBox="0 0 251.156 58.82">
  <g id="burh-imagotipo-white" transform="translate(-106.761 -280.265)">
    <path id="Path_1" data-name="Path 1" d="M270.167,339.08a17.962,17.962,0,0,1-9.355-2.339,15.7,15.7,0,0,1-6.15-6.626,21.671,21.671,0,0,1-2.209-10.091V297.459h8.922v22.695a12.116,12.116,0,0,0,2.425,7.925,8.918,8.918,0,0,0,13.166,0,12.029,12.029,0,0,0,2.426-7.925V297.459h8.921v22.565a21.563,21.563,0,0,1-2.208,10,16.079,16.079,0,0,1-6.194,6.627A19.142,19.142,0,0,1,270.167,339.08Z" fill="#fff"/>
    <path id="Path_2" data-name="Path 2" d="M293.554,338.908V297.344h8.322l.044,7.209a13.948,13.948,0,0,1,4.762-5.785,11.422,11.422,0,0,1,6.631-1.958,13.094,13.094,0,0,1,2.314.178,6.966,6.966,0,0,1,2,.578l-.979,8.678-1.869-.223a13.916,13.916,0,0,0-1.913-.133,9.225,9.225,0,0,0-7.477,3.159c-1.824,2.137-2.67,5.074-2.67,8.812v21.049Z" fill="#fff"/>
    <path id="Path_3" data-name="Path 3" d="M322.052,339V280.308h8.922v22.379a12.489,12.489,0,0,1,4.937-4.467,14.522,14.522,0,0,1,6.973-1.637,13.854,13.854,0,0,1,13.166,8.448,22.712,22.712,0,0,1,1.863,9.464V339h-8.922V315.512c0-3.361-.737-5.97-2.209-7.872a7.3,7.3,0,0,0-6.15-2.831,9.266,9.266,0,0,0-8.4,4.954,10.886,10.886,0,0,0-1.213,5.307v24.014Z" fill="#fff"/>
    <path id="Path_4" data-name="Path 4" d="M245.653,308.936a20.475,20.475,0,0,0-3.984-6.713,18.814,18.814,0,0,0-5.977-4.461,17.968,17.968,0,0,0-7.449-1.6,16.141,16.141,0,0,0-7.623,1.862,15.205,15.205,0,0,0-5.674,5.2V280.265h-8.921v58.429h8.488v-6.933a14.118,14.118,0,0,0,5.544,5.283,16.182,16.182,0,0,0,7.666,1.863,17.947,17.947,0,0,0,7.622-1.6,19.08,19.08,0,0,0,6.15-4.547,21.9,21.9,0,0,0,4.115-6.887,25.031,25.031,0,0,0,1.472-8.532A24.087,24.087,0,0,0,245.653,308.936Zm-17.5,20.139a11.455,11.455,0,1,1,11.39-11.52A11.455,11.455,0,0,1,228.156,329.075Z" fill="#fff"/>
    <g id="burh-isotipo">
      <g id="Camada_1" data-name="Camada 1">
        <path id="Combined-Shape" d="M153.793,322.1a9.672,9.672,0,0,1-9.572.044,6.2,6.2,0,0,0-.476,1.689,18.8,18.8,0,0,1-36.727-1.733c-1-6.886.866-12.776,6.193-17.453,2.469-2.166,4.981-4.158,7.493-6.15a15.822,15.822,0,0,1,8.792-3.335,1.525,1.525,0,0,0,1.169-.563c1.083-1.126,2.252-2.3,3.422-3.335a7.088,7.088,0,0,1,11.087,1.559c.087.13.173.3.26.433.173.433.39.476.823.26a5.526,5.526,0,0,1,4.158-.433,6.674,6.674,0,0,1,1.3.476c.476.26.693.217.866-.3a7.154,7.154,0,0,1,9.611-3.162c.209.106.413.222.61.347a16.411,16.411,0,0,1,2.772,2.425,5.2,5.2,0,0,1,.476.52,10.429,10.429,0,0,0,1.733,1.646,6.3,6.3,0,0,0,2.252.346,14.554,14.554,0,0,1,6.713,2.729c2.988,2.252,5.89,4.591,8.705,7.146a18.042,18.042,0,0,1,5.631,10.308,19.126,19.126,0,0,1-9.745,20.269,18.931,18.931,0,0,1-27.285-12.993A1.871,1.871,0,0,0,153.793,322.1Zm19.013,9.832a12.69,12.69,0,0,0,.13-25.38h0a12.69,12.69,0,0,0-.13,25.38Zm-59.6-12.647a12.625,12.625,0,1,0,12.56-12.69h-.043a12.558,12.558,0,0,0-12.517,12.6Zm30.75-5.717a5.067,5.067,0,1,0,10.135,0,5.093,5.093,0,0,0-5.024-5.067,5.029,5.029,0,0,0-5.11,4.946C143.961,313.49,143.961,313.53,143.961,313.57Z" fill="#fff"/>
        <path id="Path_4341" data-name="Path 4341" d="M174.365,311.015a8.269,8.269,0,1,1-9.485,8.1,7.83,7.83,0,0,0,6.843-1.646A7.569,7.569,0,0,0,174.365,311.015Z" fill="#fff"/>
        <path id="Path_4342" data-name="Path 4342" d="M127.634,311.015a8.256,8.256,0,0,1,7.1,7.753,8.307,8.307,0,0,1-16.587.909c-.044-.563,0-.563.649-.476a7.583,7.583,0,0,0,8.576-5.284A12.737,12.737,0,0,0,127.634,311.015Z" fill="#fff"/>
      </g>
    </g>
  </g>
</svg>
